<svg xmlns="http://www.w3.org/2000/svg" xmlns:xlink="http://www.w3.org/1999/xlink" id="processonSvg1000" viewBox="22.0 5.5 1352.5 986.5" width="1352.5" height="986.5"><defs id="ProcessOnDefs1001"><marker id="ProcessOnMarker1015" markerUnits="userSpaceOnUse" orient="auto" markerWidth="16.23606797749979" markerHeight="10.550836550532098" viewBox="-1.0 -1.3763819204711736 16.23606797749979 10.550836550532098" refX="-1.0" refY="3.8990363547948754"><path id="ProcessOnPath1016" d="M12.0 3.8990363547948754L0.0 7.798072709589751V0.0Z" stroke="#323232" stroke-width="2.0" fill="#323232" transform="matrix(1.0,0.0,0.0,1.0,0.0,0.0)"/></marker><marker id="ProcessOnMarker1019" markerUnits="userSpaceOnUse" orient="auto" markerWidth="16.23606797749979" markerHeight="10.550836550532098" viewBox="-1.0 -1.3763819204711736 16.23606797749979 10.550836550532098" refX="-1.0" refY="3.8990363547948754"><path id="ProcessOnPath1020" d="M12.0 3.8990363547948754L0.0 7.798072709589751V0.0Z" stroke="#323232" stroke-width="2.0" fill="#323232" transform="matrix(1.0,0.0,0.0,1.0,0.0,0.0)"/></marker><marker id="ProcessOnMarker1031" markerUnits="userSpaceOnUse" orient="auto" markerWidth="16.23606797749979" markerHeight="10.550836550532098" viewBox="-1.0 -1.3763819204711736 16.23606797749979 10.550836550532098" refX="-1.0" refY="3.8990363547948754"><path id="ProcessOnPath1032" d="M12.0 3.8990363547948754L0.0 7.798072709589751V0.0Z" stroke="#323232" stroke-width="2.0" fill="#323232" transform="matrix(1.0,0.0,0.0,1.0,0.0,0.0)"/></marker><marker id="ProcessOnMarker1043" markerUnits="userSpaceOnUse" orient="auto" markerWidth="16.23606797749979" markerHeight="10.550836550532098" viewBox="-1.0 -1.3763819204711736 16.23606797749979 10.550836550532098" refX="-1.0" refY="3.8990363547948754"><path id="ProcessOnPath1044" d="M12.0 3.8990363547948754L0.0 7.798072709589751V0.0Z" stroke="#323232" stroke-width="2.0" fill="#323232" transform="matrix(1.0,0.0,0.0,1.0,0.0,0.0)"/></marker><marker id="ProcessOnMarker1058" markerUnits="userSpaceOnUse" orient="auto" markerWidth="16.23606797749979" markerHeight="10.550836550532098" viewBox="-1.0 -1.3763819204711736 16.23606797749979 10.550836550532098" refX="-1.0" refY="3.8990363547948754"><path id="ProcessOnPath1059" d="M12.0 3.8990363547948754L0.0 7.798072709589751V0.0Z" stroke="#323232" stroke-width="2.0" fill="#323232" transform="matrix(1.0,0.0,0.0,1.0,0.0,0.0)"/></marker><marker id="ProcessOnMarker1095" markerUnits="userSpaceOnUse" orient="auto" markerWidth="16.23606797749979" markerHeight="10.550836550532098" viewBox="-1.0 -1.3763819204711736 16.23606797749979 10.550836550532098" refX="-1.0" refY="3.8990363547948754"><path id="ProcessOnPath1096" d="M12.0 3.8990363547948754L0.0 7.798072709589751V0.0Z" stroke="#323232" stroke-width="2.0" fill="#323232" transform="matrix(1.0,0.0,0.0,1.0,0.0,0.0)"/></marker><marker id="ProcessOnMarker1099" markerUnits="userSpaceOnUse" orient="auto" markerWidth="16.23606797749979" markerHeight="10.550836550532098" viewBox="-1.0 -1.3763819204711736 16.23606797749979 10.550836550532098" refX="-1.0" refY="3.8990363547948754"><path id="ProcessOnPath1100" d="M12.0 3.8990363547948754L0.0 7.798072709589751V0.0Z" stroke="#323232" stroke-width="2.0" fill="#323232" transform="matrix(1.0,0.0,0.0,1.0,0.0,0.0)"/></marker><marker id="ProcessOnMarker1121" markerUnits="userSpaceOnUse" orient="auto" markerWidth="16.23606797749979" markerHeight="10.550836550532098" viewBox="-1.0 -1.3763819204711736 16.23606797749979 10.550836550532098" refX="-1.0" refY="3.8990363547948754"><path id="ProcessOnPath1122" d="M12.0 3.8990363547948754L0.0 7.798072709589751V0.0Z" stroke="#323232" stroke-width="2.0" fill="#323232" transform="matrix(1.0,0.0,0.0,1.0,0.0,0.0)"/></marker><marker id="ProcessOnMarker1130" markerUnits="userSpaceOnUse" orient="auto" markerWidth="16.23606797749979" markerHeight="10.550836550532098" viewBox="-1.0 -1.3763819204711736 16.23606797749979 10.550836550532098" refX="-1.0" refY="3.8990363547948754"><path id="ProcessOnPath1131" d="M12.0 3.8990363547948754L0.0 7.798072709589751V0.0Z" stroke="#323232" stroke-width="2.0" fill="#323232" transform="matrix(1.0,0.0,0.0,1.0,0.0,0.0)"/></marker><marker id="ProcessOnMarker1154" markerUnits="userSpaceOnUse" orient="auto" markerWidth="16.23606797749979" markerHeight="10.550836550532098" viewBox="-1.0 -1.3763819204711736 16.23606797749979 10.550836550532098" refX="-1.0" refY="3.8990363547948754"><path id="ProcessOnPath1155" d="M12.0 3.8990363547948754L0.0 7.798072709589751V0.0Z" stroke="#323232" stroke-width="2.0" fill="#323232" transform="matrix(1.0,0.0,0.0,1.0,0.0,0.0)"/></marker><marker id="ProcessOnMarker1158" markerUnits="userSpaceOnUse" orient="auto" markerWidth="16.23606797749979" markerHeight="10.550836550532098" viewBox="-1.0 -1.3763819204711736 16.23606797749979 10.550836550532098" refX="-1.0" refY="3.8990363547948754"><path id="ProcessOnPath1159" d="M12.0 3.8990363547948754L0.0 7.798072709589751V0.0Z" stroke="#323232" stroke-width="2.0" fill="#323232" transform="matrix(1.0,0.0,0.0,1.0,0.0,0.0)"/></marker><marker id="ProcessOnMarker1167" markerUnits="userSpaceOnUse" orient="auto" markerWidth="16.23606797749979" markerHeight="10.550836550532098" viewBox="-1.0 -1.3763819204711736 16.23606797749979 10.550836550532098" refX="-1.0" refY="3.8990363547948754"><path id="ProcessOnPath1168" d="M12.0 3.8990363547948754L0.0 7.798072709589751V0.0Z" stroke="#323232" stroke-width="2.0" fill="#323232" transform="matrix(1.0,0.0,0.0,1.0,0.0,0.0)"/></marker><marker id="ProcessOnMarker1176" markerUnits="userSpaceOnUse" orient="auto" markerWidth="16.23606797749979" markerHeight="10.550836550532098" viewBox="-1.0 -1.3763819204711736 16.23606797749979 10.550836550532098" refX="-1.0" refY="3.8990363547948754"><path id="ProcessOnPath1177" d="M12.0 3.8990363547948754L0.0 7.798072709589751V0.0Z" stroke="#323232" stroke-width="2.0" fill="#323232" transform="matrix(1.0,0.0,0.0,1.0,0.0,0.0)"/></marker><marker id="ProcessOnMarker1186" markerUnits="userSpaceOnUse" orient="auto" markerWidth="16.23606797749979" markerHeight="10.550836550532098" viewBox="-1.0 -1.3763819204711736 16.23606797749979 10.550836550532098" refX="-1.0" refY="3.8990363547948754"><path id="ProcessOnPath1187" d="M12.0 3.8990363547948754L0.0 7.798072709589751V0.0Z" stroke="#323232" stroke-width="2.0" fill="#323232" transform="matrix(1.0,0.0,0.0,1.0,0.0,0.0)"/></marker><marker id="ProcessOnMarker1200" markerUnits="userSpaceOnUse" orient="auto" markerWidth="16.23606797749979" markerHeight="10.550836550532098" viewBox="-1.0 -1.3763819204711736 16.23606797749979 10.550836550532098" refX="-1.0" refY="3.8990363547948754"><path id="ProcessOnPath1201" d="M12.0 3.8990363547948754L0.0 7.798072709589751V0.0Z" stroke="#323232" stroke-width="2.0" fill="#323232" transform="matrix(1.0,0.0,0.0,1.0,0.0,0.0)"/></marker><marker id="ProcessOnMarker1212" markerUnits="userSpaceOnUse" orient="auto" markerWidth="16.23606797749979" markerHeight="10.550836550532098" viewBox="-1.0 -1.3763819204711736 16.23606797749979 10.550836550532098" refX="-1.0" refY="3.8990363547948754"><path id="ProcessOnPath1213" d="M12.0 3.8990363547948754L0.0 7.798072709589751V0.0Z" stroke="#323232" stroke-width="2.0" fill="#323232" transform="matrix(1.0,0.0,0.0,1.0,0.0,0.0)"/></marker><marker id="ProcessOnMarker1220" markerUnits="userSpaceOnUse" orient="auto" markerWidth="16.23606797749979" markerHeight="10.550836550532098" viewBox="-1.0 -1.3763819204711736 16.23606797749979 10.550836550532098" refX="-1.0" refY="3.8990363547948754"><path id="ProcessOnPath1221" d="M12.0 3.8990363547948754L0.0 7.798072709589751V0.0Z" stroke="#323232" stroke-width="2.0" fill="#323232" transform="matrix(1.0,0.0,0.0,1.0,0.0,0.0)"/></marker><marker id="ProcessOnMarker1228" markerUnits="userSpaceOnUse" orient="auto" markerWidth="16.23606797749979" markerHeight="10.550836550532098" viewBox="-1.0 -1.3763819204711736 16.23606797749979 10.550836550532098" refX="-1.0" refY="3.8990363547948754"><path id="ProcessOnPath1229" d="M12.0 3.8990363547948754L0.0 7.798072709589751V0.0Z" stroke="#323232" stroke-width="2.0" fill="#323232" transform="matrix(1.0,0.0,0.0,1.0,0.0,0.0)"/></marker></defs><g id="ProcessOnG1002"><path id="ProcessOnPath1003" d="M22.0 5.5H1374.5V992.0H22.0V5.5Z" fill="none"/><g id="ProcessOnG1004"><g id="ProcessOnG1005" transform="matrix(1.0,0.0,0.0,1.0,385.0,43.0)" opacity="1.0"><path id="ProcessOnPath1006" d="M13.666666666666666 0.0L233.0 0.0L219.33333333333334 41.0L0.0 41.0L13.666666666666666 0.0Z" stroke="#323232" stroke-width="2.0" stroke-dasharray="none" opacity="1.0" fill="#ffffff"/><g id="ProcessOnG1007" transform="matrix(1.0,0.0,0.0,1.0,34.949999999999996,10.5)"><text id="ProcessOnText1008" fill="#000000" font-size="16" x="80.55" y="16.4" font-family="微软雅黑" font-weight="bold" font-style="normal" text-decoration="none" family="微软雅黑" text-anchor="middle" size="16">浏览器地址栏输入URL</text></g></g><g id="ProcessOnG1009" transform="matrix(1.0,0.0,0.0,1.0,456.5,169.0)" opacity="1.0"><path id="ProcessOnPath1010" d="M0.0 35.0L45.0 0.0L90.0 35.0L45.0 70.0L0.0 35.0Z" stroke="#00cc00" stroke-width="2.0" stroke-dasharray="none" opacity="1.0" fill="#ffffff"/><g id="ProcessOnG1011" transform="matrix(1.0,0.0,0.0,1.0,10.0,26.875)"><text id="ProcessOnText1012" fill="#000000" font-size="13" x="34.0" y="13.325" font-family="微软雅黑" font-weight="bold" font-style="normal" text-decoration="none" family="微软雅黑" text-anchor="middle" size="13">查看缓存</text></g></g><g id="ProcessOnG1013"><path id="ProcessOnPath1014" d="M501.5 84.0L501.5 126.0L501.5 126.0L501.5 152.7639320225002" stroke="#323232" stroke-width="2.0" stroke-dasharray="none" fill="none" marker-end="url(#ProcessOnMarker1015)"/></g><g id="ProcessOnG1017"><path id="ProcessOnPath1018" d="M456.5 204.0L362.25 204.0L362.25 204.0L283.2360679774998 204.0" stroke="#323232" stroke-width="2.0" stroke-dasharray="none" fill="none" marker-end="url(#ProcessOnMarker1019)"/></g><g id="ProcessOnG1021" transform="matrix(1.0,0.0,0.0,1.0,322.0,137.0)" opacity="1.0"><path id="ProcessOnPath1022" d="M0.0 0.0L96.0 0.0L96.0 80.0L0.0 80.0Z" stroke="none" stroke-width="0.0" stroke-dasharray="none" opacity="1.0" fill="none"/><g id="ProcessOnG1023" transform="matrix(1.0,0.0,0.0,1.0,0.0,25.0)"><text id="ProcessOnText1024" fill="#ff3333" font-size="24" x="47.0" y="24.6" font-family="微软雅黑" font-weight="bold" font-style="normal" text-decoration="none" family="微软雅黑" text-anchor="middle" size="24">未缓存</text></g></g><g id="ProcessOnG1025" transform="matrix(1.0,0.0,0.0,1.0,52.0,180.0)" opacity="1.0"><path id="ProcessOnPath1026" d="M16.0 0.0L200.0 0.0C221.33333333333334 0.0 221.33333333333334 48.0 200.0 48.0L16.0 48.0C-5.333333333333333 48.0 -5.333333333333333 0.0 16.0 0.0Z" stroke="#323232" stroke-width="2.0" stroke-dasharray="none" opacity="1.0" fill="#ffffff"/><g id="ProcessOnG1027" transform="matrix(1.0,0.0,0.0,1.0,10.0,10.875)"><text id="ProcessOnText1028" fill="#00cc00" font-size="21" x="97.0" y="21.525" font-family="微软雅黑" font-weight="bold" font-style="normal" text-decoration="none" family="微软雅黑" text-anchor="middle" size="21">发起新请求</text></g></g><g id="ProcessOnG1029"><path id="ProcessOnPath1030" d="M546.5 204.0L650.75 204.0L650.75 204.0L739.7639320225002 204.0" stroke="#323232" stroke-width="2.0" stroke-dasharray="none" fill="none" marker-end="url(#ProcessOnMarker1031)"/></g><g id="ProcessOnG1033" transform="matrix(1.0,0.0,0.0,1.0,564.0,158.5)" opacity="1.0"><path id="ProcessOnPath1034" d="M0.0 0.0L139.0 0.0L139.0 43.0L0.0 43.0Z" stroke="none" stroke-width="0.0" stroke-dasharray="none" opacity="1.0" fill="none"/><g id="ProcessOnG1035" transform="matrix(1.0,0.0,0.0,1.0,0.0,6.5)"><text id="ProcessOnText1036" fill="#ff0000" font-size="24" x="68.5" y="24.6" font-family="微软雅黑" font-weight="bold" font-style="normal" text-decoration="none" family="微软雅黑" text-anchor="middle" size="24">已缓存</text></g></g><g id="ProcessOnG1037" transform="matrix(1.0,0.0,0.0,1.0,755.0,169.0)" opacity="1.0"><path id="ProcessOnPath1038" d="M0.0 35.0L74.5 0.0L149.0 35.0L74.5 70.0L0.0 35.0Z" stroke="#00cc00" stroke-width="2.0" stroke-dasharray="none" opacity="1.0" fill="#ffffff"/><g id="ProcessOnG1039" transform="matrix(1.0,0.0,0.0,1.0,10.0,26.875)"><text id="ProcessOnText1040" fill="#000000" font-size="13" x="63.5" y="13.325" font-family="微软雅黑" font-weight="bold" font-style="normal" text-decoration="none" family="微软雅黑" text-anchor="middle" size="13">检验是否足够新鲜</text></g></g><g id="ProcessOnG1041"><path id="ProcessOnPath1042" d="M904.0 204.0L1000.5 204.0L1000.5 381.7639320225002" stroke="#323232" stroke-width="2.0" stroke-dasharray="none" fill="none" marker-end="url(#ProcessOnMarker1043)"/></g><g id="ProcessOnG1045" transform="matrix(1.0,0.0,0.0,1.0,912.0,397.0)" opacity="1.0"><path id="ProcessOnPath1046" d="M18.333333333333332 0.0L158.66666666666666 0.0C183.11111111111111 0.0 183.11111111111111 55.0 158.66666666666666 55.0L18.333333333333332 55.0C-6.111111111111111 55.0 -6.111111111111111 0.0 18.333333333333332 0.0Z" stroke="#323232" stroke-width="2.0" stroke-dasharray="none" opacity="1.0" fill="#ffffff"/><g id="ProcessOnG1047" transform="matrix(1.0,0.0,0.0,1.0,10.0,16.25)"><text id="ProcessOnText1048" fill="#00cc00" font-size="18" x="77.5" y="18.45" font-family="微软雅黑" font-weight="bold" font-style="normal" text-decoration="none" family="微软雅黑" text-anchor="middle" size="18">直接提供给客户端</text></g></g><g id="ProcessOnG1049" transform="matrix(1.0,0.0,0.0,1.0,967.0,258.0)" opacity="1.0"><path id="ProcessOnPath1050" d="M0.0 0.0L31.0 0.0L31.0 67.0L0.0 67.0Z" stroke="none" stroke-width="0.0" stroke-dasharray="none" opacity="1.0" fill="none"/><g id="ProcessOnG1051" transform="matrix(1.0,0.0,0.0,1.0,0.0,-26.5)"><text id="ProcessOnText1052" fill="#ff0000" font-size="24" x="14.5" y="24.6" font-family="微软雅黑" font-weight="bold" font-style="normal" text-decoration="none" family="微软雅黑" text-anchor="middle" size="24">足</text><text id="ProcessOnText1053" fill="#ff0000" font-size="24" x="14.5" y="54.6" font-family="微软雅黑" font-weight="bold" font-style="normal" text-decoration="none" family="微软雅黑" text-anchor="middle" size="24">够</text><text id="ProcessOnText1054" fill="#ff0000" font-size="24" x="14.5" y="84.6" font-family="微软雅黑" font-weight="bold" font-style="normal" text-decoration="none" family="微软雅黑" text-anchor="middle" size="24">新</text><text id="ProcessOnText1055" fill="#ff0000" font-size="24" x="14.5" y="114.6" font-family="微软雅黑" font-weight="bold" font-style="normal" text-decoration="none" family="微软雅黑" text-anchor="middle" size="24">鲜</text></g></g><g id="ProcessOnG1056"><path id="ProcessOnPath1057" d="M829.5 239.0L829.5 322.0L625.2360679774998 322.0" stroke="#323232" stroke-width="2.0" stroke-dasharray="none" fill="none" marker-end="url(#ProcessOnMarker1058)"/></g><g id="ProcessOnG1060" transform="matrix(1.0,0.0,0.0,1.0,840.0,258.0)" opacity="1.0"><path id="ProcessOnPath1061" d="M0.0 0.0L30.0 0.0L30.0 143.0L0.0 143.0Z" stroke="none" stroke-width="0.0" stroke-dasharray="none" opacity="1.0" fill="none"/><g id="ProcessOnG1062" transform="matrix(1.0,0.0,0.0,1.0,0.0,-3.5)"><text id="ProcessOnText1063" fill="#ff0000" font-size="24" x="14.0" y="24.6" font-family="微软雅黑" font-weight="bold" font-style="normal" text-decoration="none" family="微软雅黑" text-anchor="middle" size="24">未</text><text id="ProcessOnText1064" fill="#ff0000" font-size="24" x="14.0" y="54.6" font-family="微软雅黑" font-weight="bold" font-style="normal" text-decoration="none" family="微软雅黑" text-anchor="middle" size="24">足</text><text id="ProcessOnText1065" fill="#ff0000" font-size="24" x="14.0" y="84.6" font-family="微软雅黑" font-weight="bold" font-style="normal" text-decoration="none" family="微软雅黑" text-anchor="middle" size="24">够</text><text id="ProcessOnText1066" fill="#ff0000" font-size="24" x="14.0" y="114.6" font-family="微软雅黑" font-weight="bold" font-style="normal" text-decoration="none" family="微软雅黑" text-anchor="middle" size="24">新</text><text id="ProcessOnText1067" fill="#ff0000" font-size="24" x="14.0" y="144.6" font-family="微软雅黑" font-weight="bold" font-style="normal" text-decoration="none" family="微软雅黑" text-anchor="middle" size="24">鲜</text></g></g><g id="ProcessOnG1068" transform="matrix(1.0,0.0,0.0,1.0,393.0,293.0)" opacity="1.0"><path id="ProcessOnPath1069" d="M0.0 0.0L217.0 0.0L217.0 58.0L0.0 58.0Z" stroke="#323232" stroke-width="2.0" stroke-dasharray="none" opacity="1.0" fill="#ffffff"/><g id="ProcessOnG1070" transform="matrix(1.0,0.0,0.0,1.0,10.0,9.0)"><text id="ProcessOnText1071" fill="#000000" font-size="16" x="97.5" y="16.4" font-family="微软雅黑" font-weight="bold" font-style="normal" text-decoration="none" family="微软雅黑" text-anchor="middle" size="16">浏览器解析URL获取协议，</text><text id="ProcessOnText1072" fill="#000000" font-size="16" x="97.5" y="36.4" font-family="微软雅黑" font-weight="bold" font-style="normal" text-decoration="none" family="微软雅黑" text-anchor="middle" size="16">主机，端口，path</text></g></g><g id="ProcessOnG1073" transform="matrix(1.0,0.0,0.0,1.0,1024.5,44.0)" opacity="1.0"><path id="ProcessOnPath1074" d="M0.0 0.0L314.0 0.0L330.0 16.0L330.0 93.0L0.0 93.0L0.0 0.0Z" stroke="none" stroke-width="0.0" stroke-dasharray="none" opacity="1.0" fill="#ffffaa"/><path id="ProcessOnPath1075" d="M314.0 0.0L314.0 16.0L330.0 16.0Z" stroke="none" stroke-width="0.0" stroke-dasharray="none" opacity="1.0" fill="#cdcd78"/><path id="ProcessOnPath1076" d="M0.0 0.0L314.0 0.0L330.0 16.0L330.0 93.0L0.0 93.0L0.0 0.0Z" stroke="none" stroke-width="0.0" stroke-dasharray="none" opacity="1.0" fill="none"/><g id="ProcessOnG1077" transform="matrix(1.0,0.0,0.0,1.0,10.0,-18.5)"><text id="ProcessOnText1078" fill="#000000" font-size="13" x="154.0" y="13.325" font-family="微软雅黑" font-weight="bold" font-style="normal" text-decoration="none" family="微软雅黑" text-anchor="middle" size="13"></text><text id="ProcessOnText1079" fill="#000000" font-size="13" x="154.0" y="29.575" font-family="微软雅黑" font-weight="bold" font-style="normal" text-decoration="none" family="微软雅黑" text-anchor="middle" size="13"></text><text id="ProcessOnText1080" fill="#000000" font-size="13" x="154.0" y="45.825" font-family="微软雅黑" font-weight="bold" font-style="normal" text-decoration="none" family="微软雅黑" text-anchor="middle" size="13">检验缓存是否够新鲜，HTTP 头 进行控制 Expires(HT</text><text id="ProcessOnText1081" fill="#000000" font-size="13" x="154.0" y="62.075" font-family="微软雅黑" font-weight="bold" font-style="normal" text-decoration="none" family="微软雅黑" text-anchor="middle" size="13">TP1.0，缓存的截止时间，允许客户端在这个事件之前</text><text id="ProcessOnText1082" fill="#000000" font-size="13" x="154.0" y="78.325" font-family="微软雅黑" font-weight="bold" font-style="normal" text-decoration="none" family="微软雅黑" text-anchor="middle" size="13">不去发送请求)和Cache-Control（HTTP1.0 版本，资</text><text id="ProcessOnText1083" fill="#000000" font-size="13" x="154.0" y="94.575" font-family="微软雅黑" font-weight="bold" font-style="normal" text-decoration="none" family="微软雅黑" text-anchor="middle" size="13">源在本地缓存多少秒）。</text><text id="ProcessOnText1084" fill="#000000" font-size="13" x="154.0" y="110.825" font-family="微软雅黑" font-weight="bold" font-style="normal" text-decoration="none" family="微软雅黑" text-anchor="middle" size="13"></text><text id="ProcessOnText1085" fill="#000000" font-size="13" x="154.0" y="127.075" font-family="微软雅黑" font-weight="bold" font-style="normal" text-decoration="none" family="微软雅黑" text-anchor="middle" size="13"></text></g></g><g id="ProcessOnG1086"><path id="ProcessOnPath1087" d="M829.5 169.0L829.5 95.0L1021.0 95.0" stroke="#323232" stroke-width="2.0" stroke-dasharray="10.0 4.0 2.0 4.0" fill="none"/></g><g id="ProcessOnG1088" transform="matrix(1.0,0.0,0.0,1.0,58.5,291.5)" opacity="1.0"><path id="ProcessOnPath1089" d="M0.0 0.0L203.0 0.0L203.0 61.0L0.0 61.0Z" stroke="#323232" stroke-width="2.0" stroke-dasharray="none" opacity="1.0" fill="#ffffff"/><g id="ProcessOnG1090" transform="matrix(1.0,0.0,0.0,1.0,10.0,10.5)"><text id="ProcessOnText1091" fill="#000000" font-size="16" x="90.5" y="16.4" font-family="微软雅黑" font-weight="bold" font-style="normal" text-decoration="none" family="微软雅黑" text-anchor="middle" size="16">浏览器组装一个HTTP 请</text><text id="ProcessOnText1092" fill="#000000" font-size="16" x="90.5" y="36.4" font-family="微软雅黑" font-weight="bold" font-style="normal" text-decoration="none" family="微软雅黑" text-anchor="middle" size="16">求报文</text></g></g><g id="ProcessOnG1093"><path id="ProcessOnPath1094" d="M393.0 322.0L327.25 322.0L327.25 322.0L276.7360679774998 322.0" stroke="#323232" stroke-width="2.0" stroke-dasharray="none" fill="none" marker-end="url(#ProcessOnMarker1095)"/></g><g id="ProcessOnG1097"><path id="ProcessOnPath1098" d="M160.0 352.5L160.0 432.75L160.0 432.75L160.0 497.7639320225002" stroke="#323232" stroke-width="2.0" stroke-dasharray="none" fill="none" marker-end="url(#ProcessOnMarker1099)"/></g><g id="ProcessOnG1101" transform="matrix(1.0,0.0,0.0,1.0,169.0,370.0)" opacity="1.0"><path id="ProcessOnPath1102" d="M0.0 0.0L137.0 0.0L153.0 16.0L153.0 119.0L0.0 119.0L0.0 0.0Z" stroke="none" stroke-width="0.0" stroke-dasharray="none" opacity="1.0" fill="#ffffaa"/><path id="ProcessOnPath1103" d="M137.0 0.0L137.0 16.0L153.0 16.0Z" stroke="none" stroke-width="0.0" stroke-dasharray="none" opacity="1.0" fill="#cdcd78"/><path id="ProcessOnPath1104" d="M0.0 0.0L137.0 0.0L153.0 16.0L153.0 119.0L0.0 119.0L0.0 0.0Z" stroke="none" stroke-width="0.0" stroke-dasharray="none" opacity="1.0" fill="none"/><g id="ProcessOnG1105" transform="matrix(1.0,0.0,0.0,1.0,10.0,2.625)"><text id="ProcessOnText1106" fill="#000000" font-size="13" x="0.0" y="13.325" font-family="微软雅黑" font-weight="bold" font-style="normal" text-decoration="none" family="微软雅黑" text-anchor="start" size="13">浏览器获取IP 地址：</text><text id="ProcessOnText1107" fill="#000000" font-size="13" x="0.0" y="29.575" font-family="微软雅黑" font-weight="bold" font-style="normal" text-decoration="none" family="微软雅黑" text-anchor="start" size="13">1.浏览器缓存</text><text id="ProcessOnText1108" fill="#000000" font-size="13" x="0.0" y="45.825" font-family="微软雅黑" font-weight="bold" font-style="normal" text-decoration="none" family="微软雅黑" text-anchor="start" size="13">2.本机缓存</text><text id="ProcessOnText1109" fill="#000000" font-size="13" x="0.0" y="62.075" font-family="微软雅黑" font-weight="bold" font-style="normal" text-decoration="none" family="微软雅黑" text-anchor="start" size="13">3.hosts文件</text><text id="ProcessOnText1110" fill="#000000" font-size="13" x="0.0" y="78.325" font-family="微软雅黑" font-weight="bold" font-style="normal" text-decoration="none" family="微软雅黑" text-anchor="start" size="13">4.路由器缓存</text><text id="ProcessOnText1111" fill="#000000" font-size="13" x="0.0" y="94.575" font-family="微软雅黑" font-weight="bold" font-style="normal" text-decoration="none" family="微软雅黑" text-anchor="start" size="13">5.DNS 缓存</text><text id="ProcessOnText1112" fill="#000000" font-size="13" x="0.0" y="110.825" font-family="微软雅黑" font-weight="bold" font-style="normal" text-decoration="none" family="微软雅黑" text-anchor="start" size="13">6.DNS 递归查询</text></g></g><g id="ProcessOnG1113" transform="matrix(1.0,0.0,0.0,1.0,62.25,516.0)" opacity="1.0"><path id="ProcessOnPath1114" d="M0.0 0.0L195.5 0.0L195.5 78.0L0.0 78.0Z" stroke="#323232" stroke-width="2.0" stroke-dasharray="none" opacity="1.0" fill="#ffffff"/><g id="ProcessOnG1115" transform="matrix(1.0,0.0,0.0,1.0,10.0,9.0)"><text id="ProcessOnText1116" fill="#000000" font-size="16" x="86.75" y="16.4" font-family="微软雅黑" font-weight="bold" font-style="normal" text-decoration="none" family="微软雅黑" text-anchor="middle" size="16">打开 Socket 与目标地址</text><text id="ProcessOnText1117" fill="#000000" font-size="16" x="86.75" y="36.4" font-family="微软雅黑" font-weight="bold" font-style="normal" text-decoration="none" family="微软雅黑" text-anchor="middle" size="16">建立TCP链接，进行三</text><text id="ProcessOnText1118" fill="#000000" font-size="16" x="86.75" y="56.4" font-family="微软雅黑" font-weight="bold" font-style="normal" text-decoration="none" family="微软雅黑" text-anchor="middle" size="16">次握手。</text></g></g><g id="ProcessOnG1119"><path id="ProcessOnPath1120" d="M257.75 555.0L325.375 555.0L325.375 554.75L377.7639320225002 554.75" stroke="#323232" stroke-width="2.0" stroke-dasharray="none" fill="none" marker-end="url(#ProcessOnMarker1121)"/></g><g id="ProcessOnG1123" transform="matrix(1.0,0.0,0.0,1.0,393.0,519.75)" opacity="1.0"><path id="ProcessOnPath1124" d="M0.0 0.0L225.0 0.0L225.0 70.0L0.0 70.0Z" stroke="#323232" stroke-width="2.0" stroke-dasharray="none" opacity="1.0" fill="#ffffff"/><g id="ProcessOnG1125" transform="matrix(1.0,0.0,0.0,1.0,10.0,15.0)"><text id="ProcessOnText1126" fill="#000000" font-size="16" x="101.5" y="16.4" font-family="微软雅黑" font-weight="bold" font-style="normal" text-decoration="none" family="微软雅黑" text-anchor="middle" size="16">TCP链接建立之后，发送HT</text><text id="ProcessOnText1127" fill="#000000" font-size="16" x="101.5" y="36.4" font-family="微软雅黑" font-weight="bold" font-style="normal" text-decoration="none" family="微软雅黑" text-anchor="middle" size="16">TP请求</text></g></g><g id="ProcessOnG1128"><path id="ProcessOnPath1129" d="M618.0 554.75L684.0 554.75L684.0 554.75L734.7639320225002 554.75" stroke="#323232" stroke-width="2.0" stroke-dasharray="none" fill="none" marker-end="url(#ProcessOnMarker1130)"/></g><g id="ProcessOnG1132" transform="matrix(1.0,0.0,0.0,1.0,629.0,506.0)" opacity="1.0"><path id="ProcessOnPath1133" d="M0.0 0.0L106.0 0.0L106.0 40.0L0.0 40.0Z" stroke="none" stroke-width="0.0" stroke-dasharray="none" opacity="1.0" fill="none"/><g id="ProcessOnG1134" transform="matrix(1.0,0.0,0.0,1.0,0.0,-4.375)"><text id="ProcessOnText1135" fill="#000000" font-size="13" x="52.0" y="13.325" font-family="微软雅黑" font-weight="bold" font-style="normal" text-decoration="none" family="微软雅黑" text-anchor="middle" size="13">服务器接受请求并</text><text id="ProcessOnText1136" fill="#000000" font-size="13" x="52.0" y="29.575" font-family="微软雅黑" font-weight="bold" font-style="normal" text-decoration="none" family="微软雅黑" text-anchor="middle" size="13">解析，并将请求转</text><text id="ProcessOnText1137" fill="#000000" font-size="13" x="52.0" y="45.825" font-family="微软雅黑" font-weight="bold" font-style="normal" text-decoration="none" family="微软雅黑" text-anchor="middle" size="13">发到服务程序</text></g></g><g id="ProcessOnG1138" transform="matrix(1.0,0.0,0.0,1.0,750.0,506.0)" opacity="1.0"><path id="ProcessOnPath1139" d="M0.0 48.75L83.0 0.0L166.0 48.75L83.0 97.5L0.0 48.75Z" stroke="#00cc00" stroke-width="2.0" stroke-dasharray="none" opacity="1.0" fill="#ffffff"/><g id="ProcessOnG1140" transform="matrix(1.0,0.0,0.0,1.0,10.0,31.25)"><text id="ProcessOnText1141" fill="#000000" font-size="14" x="72.0" y="14.350000000000001" font-family="微软雅黑" font-weight="bold" font-style="normal" text-decoration="none" family="微软雅黑" text-anchor="middle" size="14">HTTP请求头部是否包</text><text id="ProcessOnText1142" fill="#000000" font-size="14" x="72.0" y="31.85" font-family="微软雅黑" font-weight="bold" font-style="normal" text-decoration="none" family="微软雅黑" text-anchor="middle" size="14">含缓存信息</text></g></g><g id="ProcessOnG1143" transform="matrix(1.0,0.0,0.0,1.0,1170.5,529.75)" opacity="1.0"><path id="ProcessOnPath1144" d="M16.666666666666668 0.0L83.33333333333333 0.0C105.55555555555556 0.0 105.55555555555556 50.0 83.33333333333333 50.0L16.666666666666668 50.0C-5.555555555555556 50.0 -5.555555555555556 0.0 16.666666666666668 0.0Z" stroke="#323232" stroke-width="2.0" stroke-dasharray="none" opacity="1.0" fill="#ffffff"/><g id="ProcessOnG1145" transform="matrix(1.0,0.0,0.0,1.0,10.0,2.5)"><text id="ProcessOnText1146" fill="#00cc00" font-size="18" x="39.0" y="18.45" font-family="微软雅黑" font-weight="bold" font-style="normal" text-decoration="none" family="微软雅黑" text-anchor="middle" size="18">返回304</text><text id="ProcessOnText1147" fill="#00cc00" font-size="18" x="39.0" y="40.95" font-family="微软雅黑" font-weight="bold" font-style="normal" text-decoration="none" family="微软雅黑" text-anchor="middle" size="18">等状态码</text></g></g><g id="ProcessOnG1148" transform="matrix(1.0,0.0,0.0,1.0,942.0,503.5)" opacity="1.0"><path id="ProcessOnPath1149" d="M0.0 0.0L176.0 0.0L176.0 53.0L0.0 53.0Z" stroke="none" stroke-width="0.0" stroke-dasharray="none" opacity="1.0" fill="none"/><g id="ProcessOnG1150" transform="matrix(1.0,0.0,0.0,1.0,0.0,11.5)"><text id="ProcessOnText1151" fill="#ff0000" font-size="24" x="87.0" y="24.6" font-family="微软雅黑" font-weight="bold" font-style="normal" text-decoration="none" family="微软雅黑" text-anchor="middle" size="24">有，并新鲜</text></g></g><g id="ProcessOnG1152"><path id="ProcessOnPath1153" d="M916.0 554.75L1043.25 554.75L1043.25 554.75L1155.2639320225003 554.75" stroke="#323232" stroke-width="2.0" stroke-dasharray="none" fill="none" marker-end="url(#ProcessOnMarker1154)"/></g><g id="ProcessOnG1156"><path id="ProcessOnPath1157" d="M833.0 603.5L833.0 659.75L833.0 659.75L833.0 700.7639320225002" stroke="#323232" stroke-width="2.0" stroke-dasharray="none" fill="none" marker-end="url(#ProcessOnMarker1158)"/></g><g id="ProcessOnG1160" transform="matrix(1.0,0.0,0.0,1.0,735.0,717.0)" opacity="1.0"><path id="ProcessOnPath1161" d="M0.0 0.0L201.0 0.0L201.0 68.0L0.0 68.0Z" stroke="#323232" stroke-width="2.0" stroke-dasharray="none" opacity="1.0" fill="#ffffff"/><g id="ProcessOnG1162" transform="matrix(1.0,0.0,0.0,1.0,10.0,14.0)"><text id="ProcessOnText1163" fill="#000000" font-size="16" x="89.5" y="16.4" font-family="微软雅黑" font-weight="bold" font-style="normal" text-decoration="none" family="微软雅黑" text-anchor="middle" size="16">处理程序读取完整请求并</text><text id="ProcessOnText1164" fill="#000000" font-size="16" x="89.5" y="36.4" font-family="微软雅黑" font-weight="bold" font-style="normal" text-decoration="none" family="微软雅黑" text-anchor="middle" size="16">准备HTTP 响应...</text></g></g><g id="ProcessOnG1165"><path id="ProcessOnPath1166" d="M735.0 751.0L676.5 751.0L676.5 751.0L633.2360679774998 751.0" stroke="#323232" stroke-width="2.0" stroke-dasharray="none" fill="none" marker-end="url(#ProcessOnMarker1167)"/></g><g id="ProcessOnG1169" transform="matrix(1.0,0.0,0.0,1.0,398.0,714.5)" opacity="1.0"><path id="ProcessOnPath1170" d="M0.0 0.0L222.5 0.0L222.5 73.0L0.0 73.0Z" stroke="#323232" stroke-width="2.0" stroke-dasharray="none" opacity="1.0" fill="#ffffff"/><g id="ProcessOnG1171" transform="matrix(1.0,0.0,0.0,1.0,10.0,16.5)"><text id="ProcessOnText1172" fill="#000000" font-size="16" x="100.25" y="16.4" font-family="微软雅黑" font-weight="bold" font-style="normal" text-decoration="none" family="微软雅黑" text-anchor="middle" size="16">服务器将响应报文通过TCP</text><text id="ProcessOnText1173" fill="#000000" font-size="16" x="100.25" y="36.4" font-family="微软雅黑" font-weight="bold" font-style="normal" text-decoration="none" family="微软雅黑" text-anchor="middle" size="16">连接发送回浏览器</text></g></g><g id="ProcessOnG1174"><path id="ProcessOnPath1175" d="M398.0 751.0L331.5 751.0L331.5 751.0L280.2360679774998 751.0" stroke="#323232" stroke-width="2.0" stroke-dasharray="none" fill="none" marker-end="url(#ProcessOnMarker1176)"/></g><g id="ProcessOnG1178" transform="matrix(1.0,0.0,0.0,1.0,60.375,718.5)" opacity="1.0"><path id="ProcessOnPath1179" d="M0.0 0.0L204.625 0.0L204.625 65.0L0.0 65.0Z" stroke="#323232" stroke-width="2.0" stroke-dasharray="none" opacity="1.0" fill="#ffffff"/><g id="ProcessOnG1180" transform="matrix(1.0,0.0,0.0,1.0,10.0,2.5)"><text id="ProcessOnText1181" fill="#000000" font-size="16" x="91.3125" y="16.4" font-family="微软雅黑" font-weight="bold" font-style="normal" text-decoration="none" family="微软雅黑" text-anchor="middle" size="16">浏览器接收到HTTP 响应</text><text id="ProcessOnText1182" fill="#000000" font-size="16" x="91.3125" y="36.4" font-family="微软雅黑" font-weight="bold" font-style="normal" text-decoration="none" family="微软雅黑" text-anchor="middle" size="16">，依据情况选择关闭TCP </text><text id="ProcessOnText1183" fill="#000000" font-size="16" x="91.3125" y="56.4" font-family="微软雅黑" font-weight="bold" font-style="normal" text-decoration="none" family="微软雅黑" text-anchor="middle" size="16">连接或者保留重用。</text></g></g><g id="ProcessOnG1184"><path id="ProcessOnPath1185" d="M162.6875 783.5L162.6875 821.75L162.6875 821.75L162.6875 844.7639320225002" stroke="#323232" stroke-width="2.0" stroke-dasharray="none" fill="none" marker-end="url(#ProcessOnMarker1186)"/></g><g id="ProcessOnG1188" transform="matrix(1.0,0.0,0.0,1.0,60.5,674.0)" opacity="1.0"><path id="ProcessOnPath1189" d="M0.0 0.0L183.0 0.0L199.0 16.0L199.0 35.5L0.0 35.5L0.0 0.0Z" stroke="none" stroke-width="0.0" stroke-dasharray="none" opacity="1.0" fill="#ffffaa"/><path id="ProcessOnPath1190" d="M183.0 0.0L183.0 16.0L199.0 16.0Z" stroke="none" stroke-width="0.0" stroke-dasharray="none" opacity="1.0" fill="#cdcd78"/><path id="ProcessOnPath1191" d="M0.0 0.0L183.0 0.0L199.0 16.0L199.0 35.5L0.0 35.5L0.0 0.0Z" stroke="none" stroke-width="0.0" stroke-dasharray="none" opacity="1.0" fill="none"/><g id="ProcessOnG1192" transform="matrix(1.0,0.0,0.0,1.0,10.0,9.625)"><text id="ProcessOnText1193" fill="#000000" font-size="13" x="88.5" y="13.325" font-family="微软雅黑" font-weight="bold" font-style="normal" text-decoration="none" family="微软雅黑" text-anchor="middle" size="13">关闭操作，进行四次挥手</text></g></g><g id="ProcessOnG1194" transform="matrix(1.0,0.0,0.0,1.0,61.828125,865.0)" opacity="1.0"><path id="ProcessOnPath1195" d="M0.0 0.0L201.71875 0.0L201.71875 64.0L0.0 64.0Z" stroke="#323232" stroke-width="2.0" stroke-dasharray="none" opacity="1.0" fill="#ffffff"/><g id="ProcessOnG1196" transform="matrix(1.0,0.0,0.0,1.0,10.0,22.0)"><text id="ProcessOnText1197" fill="#000000" font-size="16" x="89.859375" y="16.4" font-family="微软雅黑" font-weight="bold" font-style="normal" text-decoration="none" family="微软雅黑" text-anchor="middle" size="16">浏览器检查状态码</text></g></g><g id="ProcessOnG1198"><path id="ProcessOnPath1199" d="M263.546875 897.0L330.7734375 897.0L330.7734375 897.0L382.7639320225002 897.0" stroke="#323232" stroke-width="2.0" stroke-dasharray="none" fill="none" marker-end="url(#ProcessOnMarker1200)"/></g><g id="ProcessOnG1202" transform="matrix(1.0,0.0,0.0,1.0,301.0,851.0)" opacity="1.0"><path id="ProcessOnPath1203" d="M0.0 0.0L59.0 0.0L59.0 47.0L0.0 47.0Z" stroke="none" stroke-width="0.0" stroke-dasharray="none" opacity="1.0" fill="none"/><g id="ProcessOnG1204" transform="matrix(1.0,0.0,0.0,1.0,0.0,8.5)"><text id="ProcessOnText1205" fill="#ff0000" font-size="24" x="28.5" y="24.6" font-family="微软雅黑" font-weight="bold" font-style="normal" text-decoration="none" family="微软雅黑" text-anchor="middle" size="24">200</text></g></g><g id="ProcessOnG1206" transform="matrix(1.0,0.0,0.0,1.0,406.0,862.0)" opacity="1.0"><path id="ProcessOnPath1207" d="M0.0 0.0L214.5 0.0L214.5 64.0L0.0 64.0Z" stroke="#323232" stroke-width="2.0" stroke-dasharray="none" opacity="1.0" fill="#ffffff"/><g id="ProcessOnG1208" transform="matrix(1.0,0.0,0.0,1.0,10.0,22.0)"><text id="ProcessOnText1209" fill="#000000" font-size="16" x="96.25" y="16.4" font-family="微软雅黑" font-weight="bold" font-style="normal" text-decoration="none" family="微软雅黑" text-anchor="middle" size="16">如果资源可缓存，进行缓存</text></g></g><g id="ProcessOnG1210"><path id="ProcessOnPath1211" d="M162.6875 929.0L162.6875 958.0L137.2360679774998 958.0" stroke="#323232" stroke-width="2.0" stroke-dasharray="none" fill="none" marker-end="url(#ProcessOnMarker1212)"/></g><g id="ProcessOnG1214" transform="matrix(1.0,0.0,0.0,1.0,42.0,944.0)" opacity="1.0"><path id="ProcessOnPath1215" d="M9.333333333333334 0.0L72.66666666666667 0.0C85.11111111111111 0.0 85.11111111111111 28.0 72.66666666666667 28.0L9.333333333333334 28.0C-3.111111111111111 28.0 -3.111111111111111 0.0 9.333333333333334 0.0Z" stroke="#000000" stroke-width="2.0" stroke-dasharray="none" opacity="1.0" fill="#ffffff"/><g id="ProcessOnG1216" transform="matrix(1.0,0.0,0.0,1.0,10.0,5.875)"><text id="ProcessOnText1217" fill="#00cc00" font-size="13" x="30.0" y="13.325" font-family="微软雅黑" font-weight="bold" font-style="normal" text-decoration="none" family="微软雅黑" text-anchor="middle" size="13">相应处理</text></g></g><g id="ProcessOnG1218"><path id="ProcessOnPath1219" d="M620.5 894.0L675.25 894.0L675.25 894.0L714.7639320225002 894.0" stroke="#323232" stroke-width="2.0" stroke-dasharray="none" fill="none" marker-end="url(#ProcessOnMarker1220)"/></g><g id="ProcessOnG1222" transform="matrix(1.0,0.0,0.0,1.0,735.0,859.0)" opacity="1.0"><path id="ProcessOnPath1223" d="M0.0 0.0L201.0 0.0L201.0 70.0L0.0 70.0Z" stroke="#323232" stroke-width="2.0" stroke-dasharray="none" opacity="1.0" fill="#ffffff"/><g id="ProcessOnG1224" transform="matrix(1.0,0.0,0.0,1.0,10.0,25.0)"><text id="ProcessOnText1225" fill="#000000" font-size="16" x="89.5" y="16.4" font-family="微软雅黑" font-weight="bold" font-style="normal" text-decoration="none" family="微软雅黑" text-anchor="middle" size="16">资源解码，如gzip</text></g></g><g id="ProcessOnG1226"><path id="ProcessOnPath1227" d="M936.0 894.0L1041.5 894.0L1041.5 894.0L1131.7639320225003 894.0" stroke="#323232" stroke-width="2.0" stroke-dasharray="none" fill="none" marker-end="url(#ProcessOnMarker1228)"/></g><g id="ProcessOnG1230" transform="matrix(1.0,0.0,0.0,1.0,1147.0,869.0)" opacity="1.0"><path id="ProcessOnPath1231" d="M16.666666666666668 0.0L119.33333333333333 0.0C141.55555555555554 0.0 141.55555555555554 50.0 119.33333333333333 50.0L16.666666666666668 50.0C-5.555555555555556 50.0 -5.555555555555556 0.0 16.666666666666668 0.0Z" stroke="#323232" stroke-width="2.0" stroke-dasharray="none" opacity="1.0" fill="#ffffff"/><g id="ProcessOnG1232" transform="matrix(1.0,0.0,0.0,1.0,10.0,8.75)"><text id="ProcessOnText1233" fill="#00cc00" font-size="13" x="57.0" y="13.325" font-family="微软雅黑" font-weight="bold" font-style="normal" text-decoration="none" family="微软雅黑" text-anchor="middle" size="13">根据不同的资源类</text><text id="ProcessOnText1234" fill="#00cc00" font-size="13" x="57.0" y="29.575" font-family="微软雅黑" font-weight="bold" font-style="normal" text-decoration="none" family="微软雅黑" text-anchor="middle" size="13">型进行相应处理</text></g></g></g></g></svg>